<svg id="main-icons-sprite" xmlns="http://www.w3.org/2000/svg" focusable="false" style="display:none;">
    <symbol id="icon-home" viewBox="0 0 14 13">
        <path d="M13 7L7 1L1 7" fill="none" stroke="var(--icon-fill-color, currentColor)" stroke-width="1" stroke-linecap="round" stroke-linejoin="round"/>
        <path d="M3 7V12H11V7" fill="none" stroke="var(--icon-fill-color, currentColor)" stroke-width="1" stroke-linecap="round" stroke-linejoin="round"/>
    </symbol>

    <symbol id="icon-search" viewBox="0 0 34 34">
        <path d="M23.5 12C23.5 18.3513 18.3513 23.5 12 23.5C5.64873 23.5 0.5 18.3513 0.5 12C0.5 5.64873 5.64873 0.5 12 0.5C18.3513 0.5 23.5 5.64873 23.5 12Z" fill="none" stroke="var(--icon-fill-color, currentColor)"/>
        <path d="M12 22C17.5228 22 22 17.5228 22 12C22 6.47715 17.5228 2 12 2C6.47715 2 2 6.47715 2 12C2 17.5228 6.47715 22 12 22Z" fill="none" stroke="var(--icon-fill-color, currentColor)" stroke-width="var(--icon-stroke-width, 4)"/>
        <path d="M20 20L32 32" fill="none" stroke="var(--icon-fill-color, currentColor)" stroke-width="var(--icon-stroke-width, 4)" stroke-linecap="round"/>
    </symbol>

    <symbol id="icon-chevron-left" viewBox="0 0 21 36">
        <path d="M19 2L3 18L19 34" fill="none" stroke="var(--icon-fill-color, currentColor)" stroke-width="var(--icon-stroke-width, 4)" stroke-linecap="round"/>
    </symbol>

    <symbol id="icon-chevron-right" viewBox="0 0 21 36">
        <path d="M2 2L18 18L2 34" fill="none" stroke="var(--icon-fill-color, currentColor)" stroke-width="var(--icon-stroke-width, 4)" stroke-linecap="round"/>
    </symbol>

    <symbol id="icon-chevron-up" viewBox="0 0 36 21">
        <path d="M34 19L18 3L2 19" fill="none" stroke="var(--icon-fill-color, currentColor)" stroke-width="var(--icon-stroke-width, 4)" stroke-linecap="round"/>
    </symbol>

    <symbol id="icon-chevron-down" viewBox="0 0 36 21">
        <path d="M34 2L18 18L2 2" fill="none" stroke="var(--icon-fill-color, currentColor)" stroke-width="var(--icon-stroke-width, 4)" stroke-linecap="round"/>
    </symbol>

    <symbol id="icon-layer-group" viewBox="0 0 576 512">
        <path fill="var(--icon-fill-color, currentColor)" d="M288 0c-8.5 0-17 1.7-24.8 5.1L53.9 94.8C40.6 100.5 32 113.5 32 128s8.6 27.5 21.9 33.2l209.3 89.7c7.8 3.4 16.3 5.1 24.8 5.1s17-1.7 24.8-5.1l209.3-89.7c13.3-5.7 21.9-18.8 21.9-33.2s-8.6-27.5-21.9-33.2L312.8 5.1C305 1.7 296.5 0 288 0zm-5.9 49.2C284 48.4 286 48 288 48s4 .4 5.9 1.2L477.7 128 293.9 206.8c-1.9 .8-3.9 1.2-5.9 1.2s-4-.4-5.9-1.2L98.3 128 282.1 49.2zM53.9 222.8C40.6 228.5 32 241.5 32 256s8.6 27.5 21.9 33.2l209.3 89.7c7.8 3.4 16.3 5.1 24.8 5.1s17-1.7 24.8-5.1l209.3-89.7c13.3-5.7 21.9-18.8 21.9-33.2s-8.6-27.5-21.9-33.2l-31.2-13.4L430 235.5 477.7 256 293.9 334.8c-1.9 .8-3.9 1.2-5.9 1.2s-4-.4-5.9-1.2L98.3 256 146 235.5 85.1 209.4 53.9 222.8zm0 128C40.6 356.5 32 369.5 32 384s8.6 27.5 21.9 33.2l209.3 89.7c7.8 3.4 16.3 5.1 24.8 5.1s17-1.7 24.8-5.1l209.3-89.7c13.3-5.7 21.9-18.8 21.9-33.2s-8.6-27.5-21.9-33.2l-31.2-13.4L430 363.5 477.7 384 293.9 462.8c-1.9 .8-3.9 1.2-5.9 1.2s-4-.4-5.9-1.2L98.3 384 146 363.5 85.1 337.4 53.9 350.8z"/>
    </symbol>
</svg>