<svg id="main-icons-sprite" xmlns="http://www.w3.org/2000/svg" focusable="false" style="display:none;">
    <symbol id="icon-arrow-right" viewBox="0 0 18 12">
        <path fill="var(--icon-fill-color, currentColor)" d="M11.5841 11.7801C11.8695 12.0733 12.3323 12.0733 12.6177 11.7801L17.7859 6.47166C17.8634 6.39205 17.9199 6.299 17.9553 6.19982C17.9925 6.09573 18.0065 5.98487 17.9973 5.87569C17.9917 5.80944 17.9778 5.74565 17.9566 5.68544C17.9301 5.61004 17.8915 5.53811 17.8407 5.47287C17.8238 5.45112 17.8055 5.43011 17.7859 5.40997L17.7834 5.40741L12.733 0.219883C12.4475 -0.0732947 11.9848 -0.0732942 11.6993 0.219883C11.4139 0.513061 11.4139 0.988397 11.6993 1.28157L15.5046 5.19009H0.730891C0.327232 5.19009 -8.34465e-07 5.5262 -8.34465e-07 5.94082C-8.34465e-07 6.35543 0.32723 6.69155 0.730889 6.69155L15.5046 6.69155L11.5841 10.7184C11.2987 11.0116 11.2987 11.4869 11.5841 11.7801Z" />
    </symbol>

    <symbol id="icon-arrow-left" viewBox="0 0 18 12">
        <path fill="var(--icon-fill-color, currentColor)" d="M6.4159 0.219884C6.13047 -0.0732943 5.66769 -0.0732944 5.38226 0.219884L0.214074 5.52834C0.136565 5.60795 0.0801047 5.701 0.0446908 5.80018C0.00752214 5.90427 -0.00646207 6.01513 0.00273921 6.12431C0.00828171 6.19056 0.0222006 6.25435 0.0434024 6.31456C0.0698971 6.38996 0.108521 6.46189 0.159276 6.52713C0.176194 6.54888 0.19446 6.56989 0.214073 6.59003L0.216578 6.59259L5.26702 11.7801C5.55246 12.0733 6.01523 12.0733 6.30066 11.7801C6.58609 11.4869 6.58609 11.0116 6.30066 10.7184L2.49543 6.80991L17.2691 6.80991C17.6728 6.80991 18 6.4738 18 6.05918C18 5.64457 17.6728 5.30846 17.2691 5.30846L2.49542 5.30845L6.4159 1.28158C6.70133 0.988398 6.70133 0.513062 6.4159 0.219884Z" />
    </symbol>

    <symbol id="icon-bullet" viewBox="0 0 16 8">
        <rect fill="var(--icon-fill-color, currentColor)" width="16" height="8" rx="4"/>
    </symbol>

    <symbol id="icon-bullet-thin" viewBox="0 0 16 4">
        <rect fill="var(--icon-fill-color, currentColor)" width="16" height="4" rx="2" />
    </symbol>

    <symbol id="icon-check-circle" viewBox="0 0 24 24" fill="none" xmlns="http://www.w3.org/2000/svg">
        <rect fill="var(--icon-fill-color, currentColor)" width="24" height="24" rx="12" />
        <path d="M6 12L10 16L18 8" stroke="var(--icon-stroke-color, transparent)" stroke-width="var(--icon-stroke-width, 2)" stroke-linecap="round"/>
    </symbol>

    <symbol id="icon-check" viewBox="0 0 14 11">
        <path d="M13 1L4.75 9.25L1 5.5" stroke="var(--icon-fill-color, currentColor)" stroke-width="var(--icon-stroke-width, 2)" stroke-linecap="round" stroke-linejoin="round"/>
    </symbol>

    <symbol id="icon-chevron-left" viewBox="0 0 21 36">
        <path d="M19 2L3 18L19 34" fill="none" stroke="var(--icon-fill-color, currentColor)" stroke-width="var(--icon-stroke-width, 4)" stroke-linecap="round"/>
    </symbol>

    <symbol id="icon-chevron-right" viewBox="0 0 21 36">
        <path d="M2 2L18 18L2 34" fill="none" stroke="var(--icon-fill-color, currentColor)" stroke-width="var(--icon-stroke-width, 4)" stroke-linecap="round"/>
    </symbol>

    <symbol id="icon-chevron-up" viewBox="0 0 36 21">
        <path d="M34 19L18 3L2 19" fill="none" stroke="var(--icon-fill-color, currentColor)" stroke-width="var(--icon-stroke-width, 4)" stroke-linecap="round"/>
    </symbol>

    <symbol id="icon-chevron-down" viewBox="0 0 36 21">
        <path d="M34 2L18 18L2 2" fill="none" stroke="var(--icon-fill-color, currentColor)" stroke-width="var(--icon-stroke-width, 4)" stroke-linecap="round"/>
    </symbol>

    <symbol id="icon-close" viewBox="0 0 11 10">
        <rect fill="var(--icon-fill-color, currentColor)" x="8.98547" y="0.227051" width="1.5" height="12" rx="0.75" transform="rotate(45 8.98547 0.227051)"/>
        <rect fill="var(--icon-fill-color, currentColor)" width="1.5" height="12" rx="0.75" transform="matrix(-0.707107 0.707107 0.707107 0.707107 1.56067 0.227051)"/>
    </symbol>

    <symbol id="icon-home" viewBox="0 0 14 13">
        <path d="M13 7L7 1L1 7" fill="none" stroke="var(--icon-fill-color, currentColor)" stroke-width="var(--icon-stroke-width, 1)" stroke-linecap="round" stroke-linejoin="round"/>
        <path d="M3 7V12H11V7" fill="none" stroke="var(--icon-fill-color, currentColor)" stroke-width="var(--icon-stroke-width, 1)" stroke-linecap="round" stroke-linejoin="round"/>
    </symbol>

    <symbol id="icon-layer-group" viewBox="0 0 576 512">
        <path fill="var(--icon-fill-color, currentColor)" d="M288 0c-8.5 0-17 1.7-24.8 5.1L53.9 94.8C40.6 100.5 32 113.5 32 128s8.6 27.5 21.9 33.2l209.3 89.7c7.8 3.4 16.3 5.1 24.8 5.1s17-1.7 24.8-5.1l209.3-89.7c13.3-5.7 21.9-18.8 21.9-33.2s-8.6-27.5-21.9-33.2L312.8 5.1C305 1.7 296.5 0 288 0zm-5.9 49.2C284 48.4 286 48 288 48s4 .4 5.9 1.2L477.7 128 293.9 206.8c-1.9 .8-3.9 1.2-5.9 1.2s-4-.4-5.9-1.2L98.3 128 282.1 49.2zM53.9 222.8C40.6 228.5 32 241.5 32 256s8.6 27.5 21.9 33.2l209.3 89.7c7.8 3.4 16.3 5.1 24.8 5.1s17-1.7 24.8-5.1l209.3-89.7c13.3-5.7 21.9-18.8 21.9-33.2s-8.6-27.5-21.9-33.2l-31.2-13.4L430 235.5 477.7 256 293.9 334.8c-1.9 .8-3.9 1.2-5.9 1.2s-4-.4-5.9-1.2L98.3 256 146 235.5 85.1 209.4 53.9 222.8zm0 128C40.6 356.5 32 369.5 32 384s8.6 27.5 21.9 33.2l209.3 89.7c7.8 3.4 16.3 5.1 24.8 5.1s17-1.7 24.8-5.1l209.3-89.7c13.3-5.7 21.9-18.8 21.9-33.2s-8.6-27.5-21.9-33.2l-31.2-13.4L430 363.5 477.7 384 293.9 462.8c-1.9 .8-3.9 1.2-5.9 1.2s-4-.4-5.9-1.2L98.3 384 146 363.5 85.1 337.4 53.9 350.8z"/>
    </symbol>

    <symbol id="icon-negative-circle" viewBox="0 0 24 24">
        <rect fill="var(--icon-fill-color, currentColor)" width="24" height="24" rx="12"/>
        <path d="M6 12H18" stroke="var(--icon-stroke-color, transparent)" stroke-width="var(--icon-stroke-width, 2)" stroke-linecap="round"/>
    </symbol>

    <symbol id="icon-search" viewBox="0 0 34 34">
        <path d="M23.5 12C23.5 18.3513 18.3513 23.5 12 23.5C5.64873 23.5 0.5 18.3513 0.5 12C0.5 5.64873 5.64873 0.5 12 0.5C18.3513 0.5 23.5 5.64873 23.5 12Z" fill="none" stroke="var(--icon-fill-color, currentColor)"/>
        <path d="M12 22C17.5228 22 22 17.5228 22 12C22 6.47715 17.5228 2 12 2C6.47715 2 2 6.47715 2 12C2 17.5228 6.47715 22 12 22Z" fill="none" stroke="var(--icon-fill-color, currentColor)" stroke-width="var(--icon-stroke-width, 4)"/>
        <path d="M20 20L32 32" fill="none" stroke="var(--icon-fill-color, currentColor)" stroke-width="var(--icon-stroke-width, 4)" stroke-linecap="round"/>
    </symbol>

    <symbol id="icon-tag" viewBox="0 0 13 12">
        <path fill="var(--icon-fill-color, currentColor)" d="M0.5 5.90902V1.125C0.5 0.503672 1.00367 0 1.625 0H6.40902C6.70739 1.56018e-06 6.99353 0.118529 7.20451 0.329508L12.1705 5.29549C12.6098 5.73483 12.6098 6.44714 12.1705 6.88648L7.38648 11.6705C6.94714 12.1098 6.23483 12.1098 5.79549 11.6705L0.829508 6.70451C0.618529 6.49353 0.500002 6.20739 0.5 5.90902H0.5ZM3.125 1.5C2.50367 1.5 2 2.00367 2 2.625C2 3.24633 2.50367 3.75 3.125 3.75C3.74633 3.75 4.25 3.24633 4.25 2.625C4.25 2.00367 3.74633 1.5 3.125 1.5Z" />
    </symbol>

</svg>